# File created by Blade
# Date/Time:  Mon Nov 18 18:33:23 2013
# Frame Rate: 100.000 fps
#------------------------------------------------------
:FULLY-SPECIFIED
:DEGREES
179
root 53.502788 -2.547168 51.993127 -1.901724 1.329070 -124.817699
Spine 12.776859 -0.977428 -0.673396
Spine1 3.309771 1.348008 -1.708412
Spine2 0.568940 -1.563821 -1.742586
NeckDummy 0.000730 -0.099985 -0.015432 -1.489476 1.434968 -0.547859
Neck 14.187727 -1.239332 27.868821
Head -0.303868 0.333617 0.218694 -34.528335 -4.184153 -0.667936
LeftShoulderDummy -0.062507 -0.090315 0.037572 -1.469583 1.314292 -0.334177
LeftShoulder 7.031285 -3.632002 14.313107
LeftArm 21.058057 49.206786 28.744225
LeftForeArm 90.757119
LeftForeArmRoll -35.819626
LeftHand -9.499254 5.663877 -4.580326
LeftHandThumb1 16.517580 12.507864
LeftHandIndex1 14.592069 43.747542
LeftHandPinky1 13.862928 48.280588
RightShoulderDummy -0.035631 -0.074401 0.074415 -1.506121 -1.444793 0.554672
RightShoulder 6.459146 4.607564 17.211522
RightArm -45.199509 67.446149 -7.493029
RightForeArm 112.846208
RightForeArmRoll 4.311996
RightHand -17.427310 -16.529988 12.378392
RightHandThumb1 -0.997990 13.914768
RightHandIndex1 13.902266 61.519198
RightHandPinky1 19.259644 69.449695
LeftUpLeg 7.077501 20.848345 -31.741156
LeftLeg 50.990688
LeftFoot 0.567424 -1.033307 -0.759105 -11.676968 9.245255 -12.285752
LeftToeBase -1.477765
RightUpLeg 15.485933 14.141465 -24.872106
RightLeg 60.263763
RightFoot -0.500905 0.529298 0.338466 0.002199 3.544630 -29.414512
RightToeBase -1.684556
180
root 53.503287 -2.591354 51.999548 -1.905750 1.386725 -124.761301
Spine 12.749998 -1.013244 -0.716474
Spine1 3.284237 1.327748 -1.828907
Spine2 0.553986 -1.546913 -1.651653
NeckDummy 0.000453 -0.095894 -0.015245 -1.516857 1.367430 -0.542057
Neck 14.342367 -1.113220 27.893240
Head -0.299639 0.338801 0.215328 -34.511988 -4.129633 -0.663899
LeftShoulderDummy -0.061301 -0.085866 0.040442 -1.496085 1.247833 -0.332535
LeftShoulder 7.133931 -3.641389 14.297224
LeftArm 21.159394 49.063466 28.813675
LeftForeArm 90.721287
LeftForeArmRoll -35.814933
LeftHand -9.499895 5.536187 -4.575996
LeftHandThumb1 16.585911 12.576523
LeftHandIndex1 14.532684 43.891154
LeftHandPinky1 13.817642 48.455057
RightShoulderDummy -0.035236 -0.070735 0.074752 -1.532234 -1.378808 0.550298
RightShoulder 6.503021 4.626492 17.269542
RightArm -46.066994 67.469728 -8.095020
RightForeArm 112.796366
RightForeArmRoll 4.554818
RightHand -17.495393 -16.670577 12.284671
RightHandThumb1 -1.217070 14.139316
RightHandIndex1 14.131052 61.607172
RightHandPinky1 19.646763 69.584253
LeftUpLeg 7.043497 20.836488 -31.947963
LeftLeg 51.310832
LeftFoot 0.569629 -1.041288 -0.764979 -11.532841 9.220153 -12.388772
LeftToeBase -1.659686
RightUpLeg 15.385915 13.842376 -24.265003
RightLeg 59.593666
RightFoot -0.525530 0.456355 0.307607 -0.062532 4.012650 -30.603270
RightToeBase -1.409367
181
root 53.513490 -2.637922 52.011178 -1.891166 1.426562 -124.766375
Spine 12.769855 -1.031406 -0.728911
Spine1 3.245686 1.320372 -1.872552
Spine2 0.519851 -1.582603 -1.790880
NeckDummy 0.001058 -0.088227 -0.014684 -1.565110 1.470570 -0.564714
Neck 14.360009 -0.933861 27.942117
Head -0.299130 0.338269 0.212672 -34.453568 -4.102643 -0.660326
LeftShoulderDummy -0.063076 -0.079335 0.040534 -1.544663 1.350649 -0.349231
LeftShoulder 7.008334 -3.602973 14.361304
LeftArm 20.974896 48.996888 28.730617
LeftForeArm 90.697800
LeftForeArmRoll -35.811667
LeftHand -9.504410 5.421047 -4.555196
LeftHandThumb1 16.643401 12.651522
LeftHandIndex1 14.450433 43.870488
LeftHandPinky1 13.742272 48.567610
RightShoulderDummy -0.035319 -0.062967 0.079639 -1.579418 -1.482706 0.572449
RightShoulder 6.404664 4.482720 17.259133
RightArm -47.276512 67.375468 -9.209155
RightForeArm 112.946032
RightForeArmRoll 4.804370
RightHand -17.430877 -16.441215 12.050837
RightHandThumb1 -0.760374 14.125778
RightHandIndex1 14.149502 61.432149
RightHandPinky1 19.482949 69.418373
LeftUpLeg 7.040817 20.855000 -32.180138
LeftLeg 51.588561
LeftFoot 0.569010 -1.041198 -0.782881 -11.561067 9.117007 -12.460516
LeftToeBase -1.663380
RightUpLeg 14.963901 13.476814 -23.960312
RightLeg 59.232767
RightFoot -0.528922 0.381205 0.276264 0.050264 4.662192 -31.294729
RightToeBase -1.454960
182
root 53.528148 -2.687235 52.037735 -1.799101 1.491983 -124.829430
Spine 12.754257 -1.065791 -0.689510
Spine1 3.201741 1.288310 -1.799477
Spine2 0.458977 -1.480288 -1.831951
NeckDummy 0.001450 -0.079050 -0.013272 -1.592999 1.494488 -0.551671
Neck 14.453023 -0.956493 27.881656
Head -0.292931 0.342124 0.211381 -34.455582 -4.031932 -0.620601
LeftShoulderDummy -0.061576 -0.069639 0.042945 -1.571505 1.374583 -0.336902
LeftShoulder 7.002128 -3.753576 14.252155
LeftArm 20.916453 48.867112 28.653897
LeftForeArm 90.709832
LeftForeArmRoll -35.801406
LeftHand -9.552153 5.654222 -4.632551
LeftHandThumb1 16.533794 12.600471
LeftHandIndex1 14.613685 43.645162
LeftHandPinky1 13.889876 48.240460
RightShoulderDummy -0.034553 -0.054133 0.082789 -1.606661 -1.506485 0.557926
RightShoulder 6.390603 4.582054 17.405866
RightArm -47.933192 67.407446 -9.694487
RightForeArm 112.998693
RightForeArmRoll 5.178216
RightHand -17.624657 -16.390638 12.134509
RightHandThumb1 -0.698817 14.122933
RightHandIndex1 14.141976 61.454132
RightHandPinky1 19.478467 70.188883
LeftUpLeg 6.996070 20.823153 -32.491456
LeftLeg 51.934103
LeftFoot 0.567732 -1.042634 -0.784623 -11.542422 9.157626 -12.567987
LeftToeBase -1.653064
RightUpLeg 14.291149 13.205778 -24.160985
RightLeg 59.317519
RightFoot -0.522974 0.345890 0.263173 0.213341 5.245828 -31.600670
RightToeBase -1.317280
183
root 53.543859 -2.729223 52.065686 -1.717012 1.480512 -124.939939
Spine 12.727310 -0.993211 -0.685393
Spine1 3.166759 1.295931 -1.773009
Spine2 0.494068 -1.568700 -1.757350
NeckDummy 0.001250 -0.074417 -0.014537 -1.634896 1.447100 -0.571555
Neck 14.348881 -0.866399 27.940985
Head -0.296375 0.338895 0.210506 -34.399627 -4.083557 -0.639435
LeftShoulderDummy -0.062391 -0.065151 0.044502 -1.613128 1.326812 -0.357520
LeftShoulder 6.989917 -3.783911 14.274705
LeftArm 21.008893 48.720106 28.792606
LeftForeArm 90.705012
LeftForeArmRoll -35.854264
LeftHand -9.564538 5.604341 -4.680997
LeftHandThumb1 16.211045 12.225686
LeftHandIndex1 14.611375 43.699710
LeftHandPinky1 13.851025 48.264694
RightShoulderDummy -0.035672 -0.049028 0.082115 -1.649028 -1.458877 0.577641
RightShoulder 6.503381 4.423764 17.463880
RightArm -48.035850 67.357831 -9.742710
RightForeArm 113.126904
RightForeArmRoll 5.227871
RightHand -17.527484 -16.140996 11.961953
RightHandThumb1 -0.968637 14.037955
RightHandIndex1 14.319473 60.855950
RightHandPinky1 19.464256 69.069628
LeftUpLeg 6.956061 20.866106 -32.783267
LeftLeg 52.211835
LeftFoot 0.581324 -1.046537 -0.802836 -11.528776 9.252027 -12.614787
LeftToeBase -1.619326
RightUpLeg 13.486272 12.908467 -24.665651
RightLeg 59.750271
RightFoot -0.503314 0.357344 0.265348 0.314439 5.902129 -31.590085
RightToeBase -1.228533
